<?xml version="1.0" encoding="utf-8"?>
<!-- Generator: Adobe Illustrator 20.1.0, SVG Export Plug-In . SVG Version: 6.00 Build 0)  -->
<svg version="1.1" id="Layer_1" xmlns="http://www.w3.org/2000/svg" xmlns:xlink="http://www.w3.org/1999/xlink" x="0px" y="0px"
	 viewBox="0 0 1314.3 1314.3" style="enable-background:new 0 0 1314.3 1314.3;" xml:space="preserve">
<style type="text/css">
	.st0{fill:#00AEEF;}
	.st1{fill:none;stroke:#000000;stroke-width:3;stroke-miterlimit:10;stroke-dasharray:11.96,11.96;}
	.st2{fill:#FFFFFF;}
	.st3{fill:none;stroke:#000000;stroke-width:3;stroke-miterlimit:10;stroke-dasharray:11.9228,11.9228;}
</style>
<circle class="st0" cx="657.1" cy="623" r="169.8"/>
<g>
	<circle class="st1" cx="657.1" cy="623" r="224.6"/>
</g>
<path class="st2" d="M594.2,679.4h-26.8c-6.6,0-12-5.4-12-12v-88.7c0-6.6,5.4-12,12-12h26.8c6.6,0,12,5.4,12,12v88.7
	C606.2,674,600.8,679.4,594.2,679.4z"/>
<path class="st2" d="M669.7,679.4h-26.8c-6.6,0-12-5.4-12-12v-88.7c0-6.6,5.4-12,12-12h26.8c6.6,0,12,5.4,12,12v88.7
	C681.7,674,676.3,679.4,669.7,679.4z"/>
<path class="st2" d="M745.1,679.4h-26.8c-6.6,0-12-5.4-12-12v-88.7c0-6.6,5.4-12,12-12h26.8c6.6,0,12,5.4,12,12v88.7
	C757.1,674,751.7,679.4,745.1,679.4z"/>
<g>
	<circle class="st3" cx="657.1" cy="623" r="269.4"/>
</g>
</svg>
